#N canvas 1485 909 186 114 12;
#X msg 71 27 1;
#X msg 71 53 9999;
#X text 12 27 scene 1;
#X text 33 54 kill;
#N canvas 0 54 450 300 osc_output 0;
#X msg 257 149 connect localhost 57120;
#X obj 257 177 netsend -u -b;
#X obj 91 92 oscformat /timeline/scene;
#X obj 92 119 list prepend send;
#X obj 92 146 list trim, f 10;
#X obj 257 120 loadbang;
#X obj 91 60 inlet;
#X connect 0 0 1 0;
#X connect 2 0 3 0;
#X connect 3 0 4 0;
#X connect 4 0 1 0;
#X connect 5 0 0 0;
#X connect 6 0 2 0;
#X restore 72 83 pd osc_output;
#X msg 116 27 2;
#X connect 0 0 4 0;
#X connect 1 0 4 0;
#X connect 5 0 4 0;
